@startuml
'skinparam monochrome true
skinparam packageStyle rectangle
skinparam shadowing false
skinparam linetype polyline
'skinparam linetype orto

skinparam classAttributeIconSize 0

'left to right direction


class ConsultTasksUI {
    + displayTaskList(tasks: List<Task>)
    + requestDateRange()
    + requestTaskStatusFilter()
}

class ConsultTasksController {
    + ConsultTasksController(employeeRepository, taskRepository, userSession)
    + consultTasks(startDate: Date, endDate: Date, status: TaskStatus): List<Task>
}

class Repositories {
    - Repositories()
    + getInstance() : Repositories
    + getEmployeeRepository() : EmployeeRepository
}

class OrganizationRepository {
    + getOrganizationByUserEmail(email)
}

class Organization {
    - String name
    - String vatNumber
    - String phone
    - String email
    - Address postalAddress
    + Organization(name, vatNumber, webSite, phone, email, postalAddress)
    - getUserByEmail(email)
}

class AuthenticationRepository {
    + getCurrentUserSession()
}

class UserSession {
    + isLoggedInWithRole()
    + getUserId()
}

class EmployeeRepository {
    - EmployeeRepository()
    + listEmployees()
    + emailExists(mail)
    + getEmployeeByUserEmail(email)
}

class Employee {
    - String name
    - Date birthdate
    - Date admission date
    - Address postalAddress
    - String phone
    - String email
    - String ID doc type
    - String ID document number
    - String Taxpayer ID
    + CompareTo(TaxPayerID)
    + Clone()
    + toString()
}


class Tasks {
    +filterThiCollaratorTasks(userEmail):List<Tasks>
    +filterByDate(Start Date, End Date) :List<Tasks>
    +filterByStatus(Status) :List<Tasks>
}

class Task {
    + title: String
    + greenSpace: GreenSpace
    + description: String
    + status: Status
    + urgency: Urgency
    + days: int
    + hours: int
    + getTitle(): String
    + getGreenSpace(): GreenSpace
    + getDescription(): String
    + getStatus(): Status
    + getUrgency(): Urgency
    + getDays(): int
    + getHours(): int
    + toString(): String
    + findTasksByCollaboratorAndDateRange(collaboratorId: String, startDate: Date, endDate: Date): List<Task>
    + compareTo(otherTask: Task): int
}


enum Status {
    PLANNED
    POSTPONED
    CANCELED
    DONE
}

enum Urgency {
    HIGH,
    MEDIUM,
    LOW
}





Repositories -> Repositories : instance
ConsultTasksUI .> ConsultTasksController
ConsultTasksController.> AuthenticationRepository
Repositories --> "1" OrganizationRepository
OrganizationRepository --> "*" Organization : organizations
Organization "1" --> "1" EmployeeRepository
Organization "1" --> "*" Employee : employs
ConsultTasksController .> Repositories : repositories
Repositories --> "1" AuthenticationRepository
Repositories --> "1" EmployeeRepository
AuthenticationRepository -> "1" UserSession : usersession
EmployeeRepository "1" --> "*" Employee : aggregates
Tasks "1" -> "*" Task
Task --> Status : has
Task --> Urgency : has
Employee "1" -> "1" Tasks

@enduml